<svg aria-hidden="true" style="position: absolute; width: 0; height: 0; overflow: hidden;" version="1.1" xmlns="http://www.w3.org/2000/svg" xmlns:xlink="http://www.w3.org/1999/xlink">
<defs>
<symbol id="close-black" viewBox="0 0 16 16">
<path d="M13.333 3.652l-0.985-0.985-3.904 3.904-3.904-3.904-0.985 0.985 3.904 3.904-3.904 3.904 0.985 0.985 3.904-3.904 3.904 3.904 0.985-0.985-3.904-3.904 3.904-3.904z"></path>
</symbol>
<symbol id="envelope" viewBox="0 0 21 16">
<path  d="M19.333 0h-17.333c-1.103 0-2 0.897-2 2v12c0 1.103 0.897 2 2 2h17.333c1.103 0 2-0.897 2-2v-12c0-1.103-0.897-2-2-2zM19.333 1.333c0.091 0 0.177 0.019 0.256 0.052l-8.923 7.733-8.923-7.733c0.076-0.033 0.164-0.052 0.256-0.052h17.333zM19.333 14.667h-17.333c-0.368 0-0.667-0.298-0.667-0.667v0-11.207l8.896 7.711c0.116 0.102 0.27 0.164 0.437 0.164s0.321-0.062 0.438-0.164l-0.001 0.001 8.896-7.711v11.207c0 0.368-0.298 0.667-0.667 0.667v0z"></path>
</symbol>
<symbol id="facebook" viewBox="0 0 16 16">
<path  d="M10.664 2.656h1.462v-2.544c-0.616-0.071-1.33-0.112-2.054-0.112-0.026 0-0.052 0-0.078 0l0.004-0c-2.106 0-3.55 1.325-3.55 3.76v2.24h-2.323v2.844h2.323v7.156h2.85v-7.155h2.23l0.354-2.844h-2.584v-1.961c0-0.822 0.222-1.384 1.367-1.384z"></path>
</symbol>
<symbol id="instagram" viewBox="0 0 16 16">
<path  d="M15.984 4.704c-0.037-0.85-0.174-1.434-0.372-1.941-0.212-0.556-0.526-1.029-0.923-1.419l-0.001-0.001c-0.39-0.396-0.862-0.71-1.389-0.913l-0.027-0.009c-0.51-0.197-1.091-0.334-1.942-0.371-0.856-0.041-1.128-0.050-3.301-0.050s-2.444 0.010-3.298 0.047c-0.85 0.037-1.434 0.174-1.94 0.371-0.556 0.212-1.030 0.527-1.419 0.925l-0.001 0.001c-0.396 0.39-0.709 0.862-0.912 1.389l-0.009 0.027c-0.198 0.51-0.334 1.090-0.372 1.941-0.041 0.856-0.050 1.128-0.050 3.301s0.010 2.444 0.047 3.298c0.038 0.85 0.175 1.434 0.372 1.941 0.213 0.555 0.528 1.029 0.924 1.419l0.001 0.001c0.4 0.406 0.885 0.722 1.416 0.922 0.51 0.198 1.091 0.335 1.941 0.372 0.854 0.038 1.126 0.047 3.298 0.047s2.445-0.010 3.298-0.047c0.85-0.037 1.434-0.174 1.941-0.371 1.079-0.425 1.917-1.263 2.332-2.314l0.010-0.028c0.197-0.51 0.334-1.091 0.372-1.941 0.038-0.854 0.046-1.126 0.046-3.298s-0.003-2.444-0.040-3.298zM14.544 11.237c-0.035 0.782-0.166 1.203-0.276 1.485-0.276 0.699-0.819 1.243-1.5 1.512l-0.018 0.006c-0.282 0.11-0.706 0.241-1.485 0.275-0.844 0.038-1.097 0.047-3.232 0.047s-2.391-0.010-3.232-0.047c-0.782-0.034-1.203-0.166-1.485-0.275-0.36-0.135-0.667-0.338-0.918-0.596l-0.001-0.001c-0.258-0.252-0.462-0.558-0.592-0.901l-0.006-0.017c-0.109-0.282-0.24-0.706-0.274-1.485-0.038-0.844-0.047-1.098-0.047-3.232s0.010-2.392 0.047-3.232c0.034-0.782 0.166-1.203 0.274-1.485 0.134-0.361 0.339-0.668 0.599-0.918l0.001-0.001c0.252-0.258 0.559-0.462 0.903-0.591l0.017-0.006c0.28-0.11 0.706-0.24 1.484-0.275 0.844-0.037 1.097-0.046 3.232-0.046 2.138 0 2.391 0.010 3.232 0.046 0.781 0.034 1.203 0.166 1.485 0.275 0.346 0.128 0.662 0.331 0.918 0.597 0.266 0.26 0.469 0.572 0.598 0.92 0.109 0.28 0.24 0.706 0.274 1.484 0.038 0.844 0.047 1.097 0.047 3.232s-0.010 2.384-0.047 3.229z"></path>
<path  d="M8.030 3.891c-2.27 0.001-4.109 1.841-4.11 4.11v0c0 0 0 0.001 0 0.001 0 2.271 1.841 4.111 4.111 4.111s4.111-1.841 4.111-4.111c0-2.271-1.841-4.111-4.111-4.111-0 0-0.001 0-0.001 0h0zM8.030 10.667c-1.472-0-2.666-1.194-2.666-2.666s1.194-2.666 2.666-2.666c0 0 0 0 0 0h-0c1.473 0 2.667 1.194 2.667 2.667s-1.194 2.667-2.667 2.667v0zM13.262 3.729c0 0.53-0.43 0.96-0.96 0.96s-0.96-0.43-0.96-0.96v0c0-0.53 0.43-0.96 0.96-0.96s0.96 0.43 0.96 0.96v0z"></path>
</symbol>
<symbol id="linkedin" viewBox="0 0 16 16">
<path  d="M15.996 16h0.004v-5.869c0-2.87-0.618-5.082-3.974-5.082-1.614 0-2.696 0.885-3.138 1.725h-0.046v-1.457h-3.182v10.682h3.314v-5.289c0-1.393 0.264-2.74 1.989-2.74 1.699 0 1.724 1.59 1.724 2.829v5.201h3.31zM0.264 5.318h3.318v10.682h-3.318v-10.682zM1.922 0c-1.061 0-1.922 0.86-1.922 1.922v0c0 1.060 0.861 1.939 1.922 1.939s1.921-0.878 1.921-1.939c-0-1.061-0.86-1.921-1.921-1.922h-0z"></path>
</symbol>
<symbol id="client-1" viewBox="0 0 14 16">
<path  d="M1.92 0l2.339 2.214h6.523v6.175l2.339 2.214v-10.603h-11.2z"></path>
<path  d="M0 2.12v10.3h10.88v-4.094l-6.553-6.204-4.327-0.003zM8.807 10.914h-7.086v-6.928h0.501v6.459h6.585v0.469zM3.133 14.331l0.262-0.539h0.219l-0.382 0.719v0.419h-0.198v-0.419l-0.382-0.718h0.22l0.262 0.539zM4.256 14.664h-0.44l-0.092 0.265h-0.205l0.429-1.138h0.178l0.43 1.138h-0.206l-0.093-0.265zM3.871 14.505h0.33l-0.165-0.472-0.165 0.472zM5.036 14.622c0-0.052 0.014-0.101 0.043-0.144s0.085-0.097 0.17-0.157c-0.035-0.041-0.066-0.088-0.091-0.138l-0.002-0.004c-0.016-0.033-0.025-0.072-0.026-0.113v-0c0-0.089 0.027-0.159 0.081-0.211s0.127-0.078 0.219-0.078c0.083 0 0.15 0.025 0.203 0.074s0.080 0.109 0.080 0.18c0 0 0 0.001 0 0.001 0 0.048-0.013 0.093-0.037 0.131l0.001-0.001c-0.032 0.047-0.071 0.087-0.117 0.118l-0.002 0.001-0.077 0.056 0.22 0.259c0.032-0.062 0.047-0.132 0.047-0.208h0.165c0 0.14-0.033 0.255-0.098 0.344l0.167 0.198h-0.22l-0.064-0.076c-0.077 0.057-0.174 0.092-0.279 0.092-0.004 0-0.008-0-0.013-0l0.001 0c-0.112 0-0.203-0.030-0.27-0.089-0.062-0.055-0.101-0.135-0.101-0.224 0-0.003 0-0.007 0-0.010l-0 0.001zM5.412 14.793c0.064 0 0.124-0.021 0.18-0.064l-0.248-0.293-0.024 0.017c-0.062 0.047-0.094 0.101-0.094 0.163 0 0.052 0.017 0.095 0.051 0.128 0.033 0.031 0.078 0.050 0.127 0.050 0.003 0 0.006-0 0.010-0l-0 0zM5.307 14.060c0 0.044 0.027 0.099 0.081 0.165l0.086-0.059 0.025-0.020c0.030-0.026 0.048-0.064 0.048-0.106 0-0.001-0-0.003-0-0.004v0c0-0 0-0.001 0-0.001 0-0.030-0.013-0.056-0.034-0.074l-0-0c-0.021-0.020-0.050-0.032-0.081-0.032-0.001 0-0.003 0-0.004 0h0c-0.001-0-0.003-0-0.005-0-0.033 0-0.063 0.014-0.083 0.037l-0 0c-0.021 0.024-0.033 0.055-0.033 0.090 0 0.002 0 0.003 0 0.005v-0zM7.374 14.559c-0.012 0.121-0.056 0.216-0.134 0.284s-0.182 0.102-0.312 0.102c-0.091 0-0.171-0.021-0.24-0.064-0.070-0.045-0.124-0.107-0.158-0.181l-0.001-0.003c-0.037-0.080-0.059-0.173-0.059-0.272 0-0.001 0-0.003 0-0.004v0-0.106c0-0.107 0.019-0.202 0.057-0.284s0.093-0.145 0.163-0.189c0.072-0.044 0.154-0.067 0.247-0.067 0.125 0 0.227 0.034 0.303 0.102s0.121 0.164 0.134 0.289h-0.197c-0.010-0.082-0.033-0.14-0.072-0.176s-0.094-0.055-0.168-0.055c-0.086 0-0.152 0.031-0.198 0.094s-0.069 0.155-0.070 0.276v0.101c0 0.123 0.022 0.217 0.066 0.281s0.109 0.097 0.194 0.097c0.077 0 0.136-0.018 0.175-0.052s0.064-0.093 0.074-0.174h0.197zM8.459 14.39c0 0.112-0.019 0.209-0.058 0.294s-0.094 0.148-0.166 0.194c-0.071 0.045-0.154 0.067-0.247 0.067-0.092 0-0.174-0.022-0.247-0.067-0.073-0.047-0.13-0.113-0.166-0.19l-0.001-0.003c-0.037-0.082-0.059-0.177-0.059-0.278 0-0.004 0-0.008 0-0.011v0.001-0.064c0-0.111 0.019-0.209 0.059-0.294s0.095-0.15 0.166-0.195c0.072-0.045 0.154-0.068 0.247-0.068s0.175 0.022 0.246 0.067c0.072 0.044 0.127 0.108 0.166 0.192s0.059 0.181 0.059 0.292v0.063zM8.261 14.331c0-0.126-0.024-0.223-0.072-0.29-0.043-0.061-0.113-0.101-0.192-0.101-0.004 0-0.007 0-0.011 0l0.001-0c-0.002-0-0.005-0-0.008-0-0.079 0-0.15 0.040-0.192 0.1l-0 0.001c-0.048 0.067-0.072 0.161-0.074 0.284v0.066c0 0.125 0.024 0.222 0.073 0.29s0.116 0.102 0.203 0.102c0.088 0 0.155-0.033 0.202-0.1s0.071-0.164 0.071-0.292v-0.059z"></path>
</symbol>
<symbol id="client-2" viewBox="0 0 12 16">
<path  d="M5.224 0.903h0.042c0.078 0 0.162 0.008 0.245 0.015 0.367 0.026 0.731 0.081 1.090 0.164v-0.881c-0.326-0.086-0.71-0.15-1.103-0.178l-0.021-0.001c-0.127-0.010-0.285-0.018-0.444-0.021l-0.010-0h-0.131c-0.762 0.003-1.52 0.101-2.257 0.291-0.84 0.209-1.646 0.538-2.395 0.974v8.738c0.656-0.365 1.416-0.669 2.216-0.875l0.067-0.015c0.561-0.15 1.217-0.255 1.89-0.293l0.026-0.001h0.026c0.108-0.006 0.216-0.009 0.328-0.009v-0.895c-0.89 0.012-1.747 0.132-2.564 0.348l0.074-0.017c-0.302 0.078-0.592 0.163-0.866 0.257l-0.311 0.106v-6.813l0.133-0.064c0.945-0.459 2.048-0.756 3.212-0.824l0.024-0.001c0.004-0 0.009-0 0.014-0s0.010 0 0.014 0.001l-0.001-0c0.124-0.006 0.249-0.009 0.371-0.009h0.14c0.065 0.002 0.129 0.003 0.194 0.007z"></path>
<path  d="M7.418 1.826c-0.002 0-0.005 0-0.008 0-0.457 0-0.906-0.038-1.342-0.112l0.047 0.007c-0.138-0.023-0.275-0.052-0.407-0.082v8.638c0.56 0.138 1.135 0.206 1.712 0.202 0.804-0.003 1.581-0.109 2.322-0.305l-0.064 0.014c0.908-0.231 1.706-0.565 2.438-0.997l-0.043 0.023v-8.582c-0.656 0.364-1.415 0.669-2.214 0.875l-0.068 0.015c-0.775 0.199-1.573 0.302-2.373 0.305zM10.872 1.975l0.311-0.105v6.815l-0.133 0.064c-0.451 0.221-0.981 0.417-1.532 0.559l-0.059 0.013c-0.666 0.172-1.35 0.261-2.037 0.264-0.206 0-0.409-0.009-0.607-0.026l-0.213-0.019v-7.009l0.248 0.017c0.181 0.012 0.367 0.017 0.57 0.017 0.92-0.003 1.811-0.124 2.66-0.348l-0.073 0.016c0.29-0.077 0.579-0.163 0.866-0.259zM0.842 12.988c-0.084-0.087-0.201-0.14-0.33-0.14-0.006 0-0.011 0-0.017 0l0.001-0c-0.002-0-0.004-0-0.007-0-0.070 0-0.136 0.014-0.197 0.039l0.003-0.001c-0.118 0.047-0.21 0.14-0.255 0.256l-0.001 0.003c-0.025 0.062-0.037 0.127-0.036 0.193v1.167c-0.003 0.082 0.013 0.164 0.046 0.239 0.028 0.060 0.067 0.113 0.117 0.157 0.046 0.039 0.101 0.068 0.16 0.083 0.057 0.016 0.116 0.024 0.174 0.024 0.065 0.001 0.129-0.013 0.188-0.041 0.175-0.078 0.295-0.25 0.295-0.451v-0.13h-0.306v0.104c0 0.002 0 0.005 0 0.007 0 0.035-0.007 0.068-0.019 0.099l0.001-0.002c-0.010 0.026-0.025 0.048-0.044 0.066l-0 0c-0.035 0.027-0.079 0.044-0.128 0.045h-0c-0.005 0.001-0.012 0.001-0.018 0.001-0.051 0-0.097-0.025-0.125-0.063l-0-0c-0.026-0.041-0.041-0.091-0.041-0.145 0-0.004 0-0.008 0-0.012l-0 0.001v-1.089c-0.002-0.060 0.011-0.12 0.038-0.174 0.028-0.043 0.076-0.072 0.131-0.072 0.006 0 0.013 0 0.019 0.001l-0.001-0c0.002-0 0.004-0 0.006-0 0.053 0 0.101 0.026 0.13 0.066l0 0c0.032 0.041 0.051 0.093 0.051 0.15 0 0.002-0 0.005-0 0.007v-0 0.101h0.302v-0.119c0-0.002 0-0.003 0-0.005 0-0.072-0.014-0.14-0.039-0.203l0.001 0.004c-0.024-0.064-0.059-0.118-0.102-0.165l0 0zM2.655 12.975c-0.093-0.079-0.214-0.128-0.347-0.129h-0c-0.062 0-0.124 0.011-0.182 0.033-0.126 0.045-0.225 0.138-0.278 0.256l-0.001 0.003c-0.031 0.071-0.046 0.148-0.045 0.226v1.119c-0.002 0.079 0.013 0.157 0.044 0.229 0.028 0.060 0.068 0.114 0.118 0.157 0.047 0.043 0.102 0.077 0.161 0.098 0.058 0.022 0.12 0.033 0.182 0.033 0.133-0 0.255-0.050 0.348-0.132l-0.001 0.001c0.049-0.044 0.088-0.097 0.115-0.157 0.031-0.072 0.046-0.15 0.044-0.229v-1.12c0-0.003 0-0.007 0-0.010 0-0.078-0.016-0.152-0.046-0.219l0.001 0.004c-0.028-0.064-0.067-0.118-0.115-0.163l-0-0zM2.513 14.484c0 0.005 0.001 0.011 0.001 0.017 0 0.057-0.023 0.108-0.061 0.145l-0 0c-0.039 0.033-0.089 0.052-0.144 0.052s-0.105-0.020-0.144-0.053l0 0c-0.038-0.037-0.061-0.088-0.061-0.144 0-0.006 0-0.012 0.001-0.018l-0 0.001v-1.12c-0-0.005-0.001-0.011-0.001-0.017 0-0.057 0.023-0.108 0.061-0.145l0-0c0.039-0.033 0.089-0.052 0.144-0.052s0.105 0.020 0.144 0.053l-0-0c0.038 0.037 0.061 0.088 0.061 0.144 0 0.006-0 0.012-0.001 0.018l0-0.001v1.12zM5.036 14.985v-2.12h-0.293l-0.386 1.122h-0.005l-0.389-1.122h-0.29v2.119h0.303v-1.289h0.006l0.296 0.911h0.151l0.299-0.911h0.005v1.289h0.303zM6.756 13.014c-0.046-0.052-0.106-0.092-0.171-0.116-0.062-0.021-0.134-0.033-0.208-0.033-0.004 0-0.008 0-0.012 0l0.001-0h-0.45v2.12h0.302v-0.828h0.156c0.094 0.004 0.188-0.016 0.273-0.058 0.069-0.039 0.125-0.094 0.165-0.16l0.001-0.002c0.035-0.056 0.058-0.119 0.069-0.185 0.010-0.067 0.016-0.144 0.016-0.222 0-0.007-0-0.013-0-0.020l0 0.001c0.003-0.102-0.007-0.204-0.030-0.303-0.021-0.076-0.060-0.142-0.111-0.195l0 0zM6.601 13.66c-0.001 0.040-0.012 0.078-0.029 0.112l0.001-0.002c-0.018 0.033-0.044 0.058-0.077 0.074l-0.001 0c-0.037 0.017-0.081 0.027-0.127 0.027-0.005 0-0.011-0-0.016-0l0.001 0h-0.138v-0.721h0.156c0.004-0 0.009-0 0.014-0 0.044 0 0.086 0.010 0.124 0.028l-0.002-0.001c0.031 0.018 0.056 0.045 0.070 0.077l0 0.001c0.017 0.037 0.026 0.078 0.026 0.118v0.141c0 0.049 0.003 0.1 0 0.146h-0.003zM8.187 12.865h-0.248l-0.467 2.12h0.302l0.089-0.455h0.412l0.089 0.455h0.302l-0.478-2.12zM7.908 14.24l0.149-0.768h0.006l0.148 0.768h-0.302zM10.138 14.142h-0.006l-0.456-1.277h-0.29v2.12h0.302v-1.275h0.006l0.462 1.274h0.284v-2.119h-0.302v1.277zM11.984 12.865l-0.243 0.843h-0.006l-0.243-0.843h-0.319l0.415 1.224v0.896h0.302v-0.896l0.415-1.224h-0.32zM0 15.583h0.146v0.408h0.099v-0.409h0.145v-0.084h-0.389v0.084zM1.224 15.499l-0.191 0.492h0.105l0.041-0.112h0.196l0.042 0.112h0.108l-0.196-0.492h-0.105zM1.208 15.797l0.067-0.182 0.067 0.182h-0.134zM2.433 15.81h0.114v0.063c-0.032 0.026-0.072 0.041-0.117 0.042h-0c-0.002 0-0.005 0-0.007 0-0.039 0-0.075-0.018-0.097-0.047l-0-0c-0.023-0.033-0.037-0.073-0.037-0.117 0-0.004 0-0.008 0-0.012l-0 0.001c0-0.11 0.047-0.164 0.142-0.164 0.003-0 0.007-0.001 0.011-0.001 0.049 0 0.089 0.033 0.101 0.078l0 0.001 0.097-0.019c-0.021-0.096-0.090-0.145-0.209-0.145-0.002-0-0.004-0-0.007-0-0.064 0-0.122 0.024-0.166 0.064l0-0c-0.044 0.044-0.071 0.104-0.071 0.171 0 0.006 0 0.013 0.001 0.019l-0-0.001c-0 0.003-0 0.007-0 0.011 0 0.066 0.024 0.127 0.064 0.174l-0-0c0.043 0.045 0.104 0.073 0.172 0.073 0.005 0 0.011-0 0.016-0.001l-0.001 0c0.002 0 0.005 0 0.008 0 0.078 0 0.148-0.030 0.201-0.079l-0 0v-0.194h-0.213v0.083zM3.669 15.499h-0.1v0.492h0.345v-0.084h-0.245v-0.409zM4.713 15.499h-0.1v0.492h0.1v-0.492zM5.734 15.828l-0.202-0.329h-0.096v0.492h0.092v-0.322l0.198 0.322h0.099v-0.492h-0.091v0.329zM6.658 15.774h0.245v-0.084h-0.245v-0.108h0.264v-0.084h-0.363v0.492h0.374v-0.084h-0.274v-0.133zM8.896 15.693h-0.194v-0.194h-0.099v0.492h0.099v-0.215h0.194v0.215h0.099v-0.492h-0.099v0.194zM9.825 15.774h0.246v-0.084h-0.246v-0.108h0.265v-0.084h-0.363v0.492h0.373v-0.084h-0.274v-0.133zM11.084 15.775c0.086-0.014 0.129-0.059 0.129-0.137 0.001-0.004 0.001-0.009 0.001-0.014 0-0.039-0.019-0.074-0.049-0.095l-0-0c-0.036-0.019-0.079-0.030-0.125-0.030-0.007 0-0.013 0-0.020 0.001l0.001-0h-0.209v0.492h0.099v-0.206h0.019c0.002-0 0.005-0 0.008-0 0.019 0 0.038 0.004 0.055 0.012l-0.001-0c0.014 0.009 0.026 0.021 0.035 0.036l0.107 0.156h0.118l-0.060-0.096c-0.027-0.048-0.064-0.088-0.108-0.117l-0.001-0.001zM10.984 15.706h-0.073v-0.123h0.078c0.006-0.001 0.013-0.001 0.021-0.001 0.028 0 0.056 0.005 0.081 0.013l-0.002-0.001c0.013 0.012 0.021 0.029 0.021 0.048 0 0.021-0.010 0.040-0.026 0.052l-0 0c-0.025 0.008-0.053 0.012-0.082 0.012-0.006 0-0.013-0-0.019-0.001l0.001 0zM12.034 15.774h0.245v-0.084h-0.245v-0.108h0.265v-0.084h-0.364v0.492h0.374v-0.084h-0.274v-0.133z"></path>
</symbol>
<symbol id="client-3" viewBox="0 0 15 16">
<path  d="M2.361 15.552c0.012 0 0.022 0.005 0.030 0.013v0l0.077 0.080c-0.060 0.065-0.133 0.117-0.215 0.152-0.097 0.039-0.201 0.057-0.305 0.055-0.005 0-0.010 0-0.015 0-0.098 0-0.191-0.019-0.277-0.053l0.005 0.002c-0.166-0.067-0.294-0.198-0.355-0.363l-0.001-0.004c-0.031-0.082-0.048-0.176-0.048-0.275 0-0.004 0-0.007 0-0.011v0.001c-0-0.003-0-0.007-0-0.012 0-0.099 0.019-0.193 0.054-0.28l-0.002 0.005c0.033-0.083 0.084-0.158 0.149-0.222s0.143-0.112 0.23-0.145c0.094-0.035 0.195-0.052 0.295-0.051 0.094-0.002 0.188 0.013 0.275 0.047 0.076 0.031 0.145 0.074 0.206 0.128l-0.064 0.086c-0.005 0.006-0.010 0.011-0.016 0.015l-0 0c-0.006 0.004-0.014 0.007-0.023 0.007-0.001 0-0.002-0-0.003-0l0 0c-0.010-0.001-0.020-0.004-0.028-0.009l0 0-0.034-0.023-0.048-0.029c-0.044-0.023-0.094-0.041-0.148-0.051l-0.003-0c-0.031-0.006-0.068-0.009-0.105-0.009-0.003 0-0.007 0-0.010 0h0c-0.002-0-0.005-0-0.008-0-0.074 0-0.144 0.014-0.209 0.039l0.004-0.001c-0.065 0.025-0.121 0.062-0.167 0.108l0-0c-0.048 0.049-0.084 0.108-0.108 0.171-0.027 0.073-0.041 0.149-0.039 0.226-0.001 0.078 0.012 0.156 0.039 0.23 0.023 0.063 0.060 0.121 0.106 0.17 0.044 0.047 0.098 0.083 0.159 0.106 0.063 0.025 0.129 0.037 0.197 0.036 0.039 0 0.078-0.002 0.117-0.007 0.063-0.007 0.124-0.028 0.177-0.061 0.027-0.017 0.052-0.036 0.076-0.057 0.010-0.009 0.022-0.014 0.036-0.015h0zM4.572 15.148c0.001 0.097-0.016 0.193-0.052 0.284-0.033 0.086-0.082 0.16-0.144 0.22l-0 0c-0.063 0.062-0.138 0.111-0.222 0.143l-0.004 0.002c-0.087 0.032-0.187 0.051-0.291 0.051s-0.204-0.019-0.297-0.053l0.006 0.002c-0.087-0.034-0.162-0.084-0.225-0.145l0 0c-0.062-0.062-0.111-0.136-0.144-0.218l-0.002-0.004c-0.033-0.084-0.052-0.182-0.052-0.284s0.019-0.2 0.054-0.29l-0.002 0.006c0.032-0.083 0.082-0.159 0.145-0.223 0.063-0.059 0.138-0.107 0.221-0.138l0.005-0.002c0.086-0.033 0.187-0.052 0.291-0.052s0.204 0.019 0.297 0.054l-0.006-0.002c0.085 0.033 0.162 0.082 0.226 0.145s0.112 0.138 0.144 0.22c0.035 0.091 0.053 0.188 0.052 0.285zM4.371 15.148c0-0.004 0-0.008 0-0.012 0-0.077-0.013-0.151-0.038-0.22l0.001 0.005c-0.043-0.128-0.139-0.228-0.261-0.277l-0.003-0.001c-0.063-0.024-0.136-0.037-0.212-0.037s-0.149 0.014-0.216 0.039l0.004-0.001c-0.125 0.049-0.222 0.15-0.264 0.275l-0.001 0.003c-0.048 0.149-0.048 0.308 0 0.456 0.043 0.128 0.14 0.228 0.262 0.276l0.003 0.001c0.137 0.048 0.287 0.048 0.423 0 0.062-0.024 0.117-0.060 0.162-0.107 0.046-0.050 0.081-0.108 0.102-0.17 0.026-0.074 0.038-0.151 0.036-0.228zM6.080 15.387l0.020 0.051c0.007-0.018 0.014-0.035 0.022-0.051 0.009-0.020 0.017-0.037 0.026-0.053l-0.001 0.002 0.489-0.847c0.010-0.015 0.019-0.024 0.028-0.026s0.021-0.005 0.033-0.005c0.002 0 0.005 0 0.007 0l-0-0h0.144v1.377h-0.171v-1.055c-0-0.007-0.001-0.015-0.001-0.024s0-0.017 0.001-0.025l-0 0.001-0.492 0.859c-0.007 0.013-0.017 0.024-0.029 0.031l-0 0c-0.012 0.007-0.026 0.011-0.041 0.011-0 0-0.001 0-0.001-0h-0.027c-0.015 0-0.030-0.004-0.042-0.011s-0.022-0.018-0.028-0.031l-0-0-0.506-0.865v1.106h-0.166v-1.375h0.144c0.002-0 0.005-0 0.007-0 0.012 0 0.023 0.002 0.034 0.005l-0.001-0c0.012 0.006 0.021 0.015 0.027 0.026l0 0 0.5 0.848c0.009 0.014 0.017 0.030 0.024 0.047l0.001 0.002zM7.921 15.319v0.516h-0.191v-1.375h0.427c0.005-0 0.011-0 0.016-0 0.079 0 0.155 0.011 0.228 0.031l-0.006-0.001c0.062 0.017 0.119 0.046 0.169 0.086 0.042 0.037 0.075 0.084 0.096 0.135 0.022 0.056 0.033 0.116 0.033 0.176 0.001 0.060-0.011 0.12-0.036 0.176-0.024 0.055-0.059 0.101-0.102 0.137l-0.001 0c-0.048 0.040-0.104 0.071-0.166 0.090l-0.003 0.001c-0.074 0.023-0.153 0.033-0.231 0.032l-0.231-0.004zM7.921 15.171h0.232c0.050 0.001 0.1-0.006 0.148-0.021 0.041-0.013 0.077-0.034 0.108-0.060l-0 0c0.028-0.024 0.050-0.055 0.065-0.089l0.001-0.002c0.015-0.033 0.023-0.072 0.023-0.113 0-0.001-0-0.002-0-0.004v0c0-0.004 0-0.009 0-0.014 0-0.035-0.007-0.069-0.020-0.099l0.001 0.002c-0.016-0.037-0.039-0.069-0.067-0.094l-0-0c-0.063-0.047-0.142-0.075-0.228-0.075-0.010 0-0.020 0-0.030 0.001l0.001-0h-0.232v0.567zM10.493 15.837h-0.151c-0.001 0-0.002 0-0.003 0-0.015 0-0.028-0.005-0.040-0.013l0 0c-0.011-0.008-0.019-0.019-0.025-0.031l-0-0.001-0.13-0.333h-0.653l-0.135 0.333c-0.005 0.013-0.013 0.023-0.024 0.031l-0 0c-0.011 0.009-0.025 0.014-0.041 0.014-0.001 0-0.002-0-0.002-0h-0.151l0.574-1.378h0.199l0.582 1.378zM9.546 15.325h0.54l-0.228-0.561c-0.015-0.035-0.030-0.078-0.042-0.123l-0.002-0.007-0.022 0.072c-0.008 0.025-0.015 0.044-0.023 0.063l0.002-0.005-0.226 0.56zM11.32 14.465c0.012 0.006 0.022 0.015 0.029 0.025l0.837 1.038v-1.069h0.171v1.378h-0.096c-0.001 0-0.002 0-0.002 0-0.013 0-0.026-0.003-0.037-0.008l0.001 0c-0.012-0.007-0.022-0.015-0.030-0.025l-0-0-0.837-1.037c0.001 0.016 0.001 0.032 0 0.047v1.024h-0.171v-1.378h0.102c0.012 0 0.023 0.002 0.034 0.006zM13.769 15.289v0.547h-0.192v-0.547l-0.529-0.83h0.171c0.001-0 0.002-0 0.004-0 0.014 0 0.027 0.005 0.038 0.012l-0-0c0.010 0.009 0.019 0.019 0.026 0.031l0 0.001 0.331 0.535c0.013 0.023 0.025 0.044 0.034 0.064s0.017 0.039 0.024 0.058l0.025-0.059c0.011-0.025 0.022-0.045 0.034-0.065l-0.001 0.002 0.326-0.539c0.007-0.011 0.015-0.021 0.025-0.029l0-0c0.010-0.008 0.023-0.013 0.038-0.013 0.001 0 0.002 0 0.003 0h0.173l-0.53 0.833zM5.985 12.147c0.083 0.010 0.167 0.019 0.253 0.026 1.291-0.551 2.384-1.451 3.14-2.59s1.145-2.465 1.116-3.812l-1.423-1.356c0.094 0.447 0.148 0.961 0.148 1.487 0 1.007-0.198 1.969-0.557 2.847l0.018-0.050c-0.545 1.366-1.478 2.56-2.695 3.449z"></path>
<path  d="M5.477 12.084l0.038 0.007c1.3-0.886 2.292-2.124 2.846-3.552 0.314-0.782 0.495-1.689 0.495-2.638 0-0.648-0.085-1.276-0.244-1.874l0.011 0.051-2.027-1.931c0.635 1.198 1.007 2.619 1.007 4.128 0 0.351-0.020 0.697-0.059 1.037l0.004-0.042c-0.198 1.759-0.917 3.428-2.072 4.814zM12.352 7.362c-0.344 1.481-1.181 2.816-2.385 3.808-0.332 0.277-0.703 0.533-1.096 0.755l-0.037 0.019c1.020-0.289 1.902-0.778 2.642-1.426l-0.008 0.007c0.733-0.641 1.313-1.437 1.69-2.339l0.016-0.042-0.822-0.783z"></path>
<path  d="M12.030 7.144l-1.171-1.115c-0.027 1.34-0.433 2.581-1.115 3.624l0.016-0.026c-0.697 1.085-1.686 1.972-2.865 2.569h0.006c0.263 0 0.525-0.015 0.786-0.045 1.125-0.442 2.075-1.119 2.825-1.975l0.007-0.008c0.727-0.83 1.256-1.852 1.503-2.979l0.008-0.045zM5.647 1.332l-1.396-1.332c-1.248 0.46-2.322 1.267-3.080 2.318s-1.167 2.295-1.17 3.569c0.005 1.409 0.502 2.776 1.414 3.885s2.186 1.897 3.621 2.238c1.281-1.487 2.031-3.324 2.141-5.244s-0.426-3.824-1.529-5.435zM15.256 6.939c-0.005-1.671-0.704-3.273-1.945-4.455s-2.922-1.848-4.676-1.853c-0.811-0.001-1.615 0.142-2.371 0.42l8.55 8.145c0.28-0.667 0.442-1.443 0.442-2.256 0-0 0-0 0-0.001v0z"></path>
</symbol>
<symbol id="client-4" viewBox="0 0 30 16">
<path  d="M4.615 4.774h-0.001c-0.842 0-1.524 0.665-1.524 1.485v0.001c0 0.82 0.682 1.485 1.524 1.485h0.001c0.842 0 1.524-0.665 1.524-1.485v-0.001c0-0.82-0.682-1.485-1.524-1.485zM15.865 4.3c-0.003-1.14-0.468-2.231-1.295-3.037-0.826-0.806-1.946-1.26-3.116-1.262-1.169 0.002-2.291 0.456-3.118 1.261s-1.293 1.898-1.295 3.038v6.283s8.822-0.957 8.823-6.282v-0.001zM0 12.644c0.004 0.829 0.348 1.578 0.9 2.113l0.001 0.001c0.56 0.543 1.325 0.878 2.168 0.879h0c0.843-0.001 1.608-0.336 2.169-0.879l-0.001 0.001c0.553-0.536 0.897-1.284 0.902-2.112v-4.373s-6.139 0.668-6.139 4.371zM3.070 13.428c-0 0-0.001 0-0.002 0-0.166 0-0.32-0.049-0.448-0.134l0.003 0.002c-0.131-0.085-0.233-0.205-0.294-0.347l-0.002-0.005c-0.039-0.088-0.061-0.191-0.061-0.3 0-0.054 0.006-0.107 0.016-0.158l-0.001 0.005c0.031-0.152 0.108-0.292 0.22-0.401 0.11-0.107 0.25-0.183 0.406-0.213l0.005-0.001c0.156-0.031 0.317-0.015 0.464 0.045s0.272 0.16 0.361 0.288c0.085 0.122 0.135 0.273 0.135 0.436 0 0.108-0.022 0.211-0.063 0.305l0.002-0.005c-0.040 0.096-0.099 0.182-0.174 0.255s-0.164 0.131-0.261 0.17c-0.091 0.038-0.197 0.060-0.308 0.060-0 0-0 0-0 0h0v-0.003zM9.336 12.942h-0.628v0.649h-0.327v-1.587h1.034v0.265h-0.706v0.41h0.628v0.264zM10.908 12.833c0 0.156-0.028 0.293-0.083 0.411s-0.134 0.208-0.238 0.272c-0.097 0.060-0.215 0.096-0.341 0.096-0.004 0-0.008-0-0.013-0l0.001 0c-0.131 0-0.249-0.032-0.352-0.095-0.104-0.065-0.187-0.157-0.238-0.266l-0.002-0.004c-0.054-0.115-0.086-0.25-0.086-0.392 0-0.005 0-0.010 0-0.015l-0 0.001v-0.079c0-0.156 0.028-0.294 0.084-0.412s0.136-0.21 0.239-0.273c0.103-0.064 0.221-0.096 0.353-0.096s0.249 0.032 0.352 0.096c0.103 0.063 0.182 0.154 0.239 0.273s0.085 0.256 0.085 0.411v0.071zM10.576 12.761c0-0.166-0.030-0.293-0.090-0.38-0.053-0.079-0.142-0.13-0.242-0.13-0.005 0-0.009 0-0.013 0l0.001-0c-0.004-0-0.008-0-0.012-0-0.1 0-0.189 0.051-0.241 0.128l-0.001 0.001c-0.060 0.085-0.090 0.21-0.091 0.375v0.077c0 0.162 0.030 0.288 0.089 0.377s0.145 0.134 0.257 0.134c0.004 0 0.008 0 0.013 0 0.1 0 0.188-0.051 0.239-0.128l0.001-0.001c0.059-0.087 0.089-0.212 0.089-0.377v-0.077zM11.968 13.174c0-0.003 0-0.006 0-0.009 0-0.054-0.026-0.102-0.065-0.132l-0-0c-0.044-0.033-0.122-0.068-0.235-0.105-0.105-0.033-0.194-0.070-0.279-0.113l0.009 0.004c-0.18-0.097-0.271-0.228-0.271-0.393 0-0.086 0.024-0.162 0.072-0.229s0.118-0.12 0.208-0.158c0.091-0.038 0.192-0.057 0.305-0.057s0.214 0.021 0.303 0.062c0.089 0.041 0.157 0.099 0.206 0.173s0.074 0.16 0.074 0.255h-0.327c0-0.073-0.023-0.129-0.068-0.169-0.046-0.041-0.11-0.061-0.193-0.061-0.080 0-0.142 0.017-0.186 0.051-0.041 0.029-0.067 0.076-0.067 0.129 0 0.001 0 0.003 0 0.004v-0c0 0.051 0.026 0.095 0.077 0.129 0.052 0.035 0.129 0.068 0.23 0.098 0.186 0.056 0.321 0.125 0.406 0.208s0.128 0.186 0.128 0.309c0 0.138-0.052 0.246-0.156 0.324s-0.244 0.117-0.42 0.117c-0.122 0-0.233-0.022-0.333-0.067-0.094-0.040-0.172-0.103-0.229-0.183l-0.001-0.002c-0.049-0.073-0.079-0.164-0.079-0.261 0-0.003 0-0.006 0-0.010v0h0.328c0 0.175 0.105 0.263 0.314 0.263 0.078 0 0.138-0.016 0.182-0.047 0.040-0.029 0.065-0.075 0.065-0.127 0-0.002-0-0.005-0-0.007l0 0zM13.713 12.268h-0.486v1.322h-0.327v-1.322h-0.48v-0.265h1.293v0.265zM14.856 12.903h-0.628v0.425h0.737v0.263h-1.064v-1.587h1.062v0.265h-0.735v0.378h0.628v0.256zM15.744 13.009h-0.26v0.581h-0.327v-1.587h0.59c0.187 0 0.332 0.042 0.434 0.125s0.153 0.202 0.153 0.354c0 0.108-0.024 0.199-0.071 0.272-0.053 0.076-0.125 0.135-0.21 0.171l-0.003 0.001 0.343 0.649v0.015h-0.351l-0.298-0.581zM15.484 12.745h0.264c0.082 0 0.145-0.021 0.191-0.062 0.042-0.041 0.068-0.098 0.068-0.162 0-0.004-0-0.008-0-0.012l0 0.001c0-0.075-0.022-0.134-0.064-0.176s-0.107-0.064-0.195-0.064h-0.263v0.476zM17.466 13.031v0.559h-0.327v-1.587h0.62c0.119 0 0.224 0.022 0.314 0.065s0.16 0.106 0.209 0.186c0.049 0.080 0.073 0.171 0.073 0.274 0 0.156-0.053 0.278-0.16 0.368s-0.253 0.134-0.442 0.134h-0.287zM17.466 12.767h0.292c0.086 0 0.152-0.020 0.197-0.061s0.069-0.099 0.069-0.174c0-0.003 0-0.007 0-0.011 0-0.068-0.026-0.131-0.069-0.177l0 0c-0.046-0.048-0.109-0.073-0.19-0.074h-0.3v0.499zM19.535 12.903h-0.628v0.425h0.737v0.263h-1.064v-1.587h1.062v0.265h-0.735v0.378h0.628v0.256zM21.052 12.268h-0.486v1.322h-0.327v-1.322h-0.479v-0.265h1.293v0.265zM22.194 12.903h-0.628v0.425h0.737v0.263h-1.064v-1.587h1.062v0.265h-0.735v0.378h0.628v0.256zM23.083 13.009h-0.26v0.581h-0.327v-1.587h0.59c0.188 0 0.332 0.042 0.434 0.125s0.153 0.202 0.153 0.354c0 0.108-0.023 0.199-0.071 0.272-0.053 0.076-0.125 0.135-0.209 0.171l-0.003 0.001 0.343 0.649v0.015h-0.351l-0.298-0.581zM22.822 12.745h0.264c0.082 0 0.145-0.021 0.191-0.062 0.042-0.041 0.068-0.098 0.068-0.161 0-0.004-0-0.009-0-0.013l0 0.001c0-0.075-0.021-0.134-0.064-0.176s-0.107-0.064-0.195-0.064h-0.263v0.476zM24.744 13.174c0-0.003 0-0.006 0-0.009 0-0.054-0.026-0.102-0.065-0.132l-0-0c-0.044-0.033-0.122-0.068-0.235-0.105-0.105-0.033-0.194-0.070-0.279-0.113l0.009 0.004c-0.18-0.097-0.271-0.228-0.271-0.393 0-0.086 0.024-0.162 0.072-0.229s0.118-0.12 0.208-0.158c0.090-0.038 0.192-0.057 0.305-0.057s0.214 0.021 0.303 0.062c0.089 0.041 0.157 0.099 0.206 0.173s0.074 0.16 0.074 0.255h-0.327c0-0.073-0.023-0.129-0.068-0.169-0.046-0.041-0.11-0.061-0.193-0.061-0.080 0-0.142 0.017-0.186 0.051-0.041 0.029-0.067 0.076-0.067 0.129 0 0.001 0 0.003 0 0.004v-0c0 0.051 0.026 0.095 0.077 0.129 0.052 0.035 0.129 0.068 0.23 0.098 0.186 0.056 0.322 0.125 0.407 0.208s0.128 0.186 0.128 0.309c0 0.138-0.052 0.246-0.156 0.324s-0.244 0.117-0.42 0.117c-0.122 0-0.233-0.022-0.333-0.067-0.094-0.040-0.172-0.103-0.229-0.183l-0.001-0.002c-0.049-0.073-0.079-0.164-0.079-0.261 0-0.003 0-0.006 0-0.010v0h0.328c0 0.175 0.105 0.263 0.314 0.263 0.078 0 0.138-0.016 0.182-0.047 0.040-0.029 0.065-0.075 0.065-0.127 0-0.002-0-0.005-0-0.007l0 0z"></path>
</symbol>
<symbol id="client-5" viewBox="0 0 20 16">
<path  d="M1.528 13.371c0.078 0.097 0.12 0.219 0.118 0.344 0 0.008 0.001 0.017 0.001 0.027 0 0.162-0.071 0.308-0.183 0.408l-0.001 0c-0.152 0.115-0.34 0.172-0.531 0.159h-0.932v-2.18h0.913c0.015-0.001 0.033-0.002 0.052-0.002 0.171 0 0.329 0.055 0.457 0.148l-0.002-0.002c0.109 0.092 0.178 0.229 0.178 0.382 0 0.009-0 0.018-0.001 0.028l0-0.001c0.005 0.12-0.032 0.238-0.106 0.334-0.071 0.086-0.169 0.146-0.278 0.17 0.124 0.023 0.236 0.089 0.315 0.187zM0.434 13.042h0.39c0.089 0.007 0.177-0.019 0.249-0.073 0.052-0.048 0.085-0.116 0.085-0.192 0-0.008-0-0.015-0.001-0.023l0 0.001c0-0.006 0.001-0.012 0.001-0.018 0-0.076-0.032-0.145-0.083-0.194l-0-0c-0.062-0.047-0.14-0.075-0.225-0.075-0.011 0-0.021 0-0.032 0.001l0.001-0h-0.384v0.572zM1.111 13.878c0.057-0.050 0.093-0.123 0.093-0.204 0-0.006-0-0.012-0.001-0.018l0 0.001c0-0.005 0-0.010 0-0.016 0-0.083-0.037-0.157-0.094-0.208l-0-0c-0.066-0.050-0.149-0.079-0.24-0.079-0.009 0-0.018 0-0.027 0.001l0.001-0h-0.409v0.599h0.415c0.093 0.005 0.186-0.021 0.262-0.076zM3.395 14.308l-0.508-0.852h-0.191v0.852h-0.437v-2.18h0.827c0.017-0.001 0.037-0.002 0.057-0.002 0.198 0 0.38 0.071 0.521 0.189l-0.001-0.001c0.123 0.126 0.198 0.297 0.198 0.487 0 0.156-0.051 0.301-0.138 0.417l0.001-0.002c-0.102 0.117-0.241 0.196-0.395 0.221l0.541 0.871h-0.475zM2.696 13.159h0.357c0.249 0 0.372-0.11 0.372-0.33 0-0.006 0.001-0.012 0.001-0.019 0-0.088-0.035-0.168-0.092-0.227l0 0c-0.067-0.056-0.153-0.090-0.248-0.090-0.012 0-0.023 0.001-0.035 0.002l0.001-0h-0.362l0.004 0.664zM5.784 13.87h-0.871l-0.154 0.439h-0.458l0.8-2.156h0.495l0.797 2.156h-0.458l-0.15-0.439zM5.667 13.539l-0.318-0.92-0.318 0.92h0.637zM8.775 14.308h-0.434l-0.973-1.483v1.483h-0.433v-2.18h0.433l0.973 1.491v-1.491h0.434v2.18zM11.251 13.787c-0.091 0.165-0.225 0.297-0.387 0.382l-0.005 0.002c-0.189 0.096-0.399 0.143-0.61 0.137h-0.773v-2.18h0.773c0.010-0 0.022-0 0.033-0 0.21 0 0.408 0.050 0.584 0.138l-0.007-0.003c0.166 0.084 0.303 0.217 0.393 0.38 0.086 0.167 0.136 0.363 0.136 0.572s-0.050 0.405-0.139 0.579l0.003-0.007zM10.754 13.734c0.119-0.139 0.192-0.321 0.192-0.52s-0.073-0.381-0.193-0.521l0.001 0.001c-0.132-0.116-0.306-0.187-0.496-0.187-0.017 0-0.033 0.001-0.049 0.002l0.002-0h-0.301v1.411h0.302c0.014 0.001 0.030 0.001 0.047 0.001 0.19 0 0.364-0.071 0.497-0.187l-0.001 0.001zM6.055 0s5.601 2.123 5.482 5.195v5.196s-5.597-2.124-5.479-5.196l-0.003-5.195zM16.527 9.174c1.003-0.701 2.214-1.173 3.525-1.314l0.034-0.003v-1.627c-1.497 0.591-2.718 1.613-3.541 2.913l-0.018 0.030z"></path>
<path  d="M15.891 9.664c0.875-1.743 2.347-3.079 4.142-3.757l0.052-0.017v-4.687s-7.976 3.024-7.807 7.398v7.398s0.355-0.135 0.915-0.389c0-0.237 0-0.475 0.025-0.715 0.175-2.103 1.171-3.944 2.663-5.223l0.010-0.009z"></path>
<path  d="M15.133 12.413c0.042-0.513 0.135-1.021 0.279-1.515-1.019 1.2-1.651 2.757-1.689 4.46l-0 0.008c0.65-0.312 1.152-0.583 1.643-0.871l-0.109 0.059c-0.095-0.454-0.15-0.976-0.15-1.51 0-0.222 0.009-0.442 0.028-0.66l-0.002 0.028zM15.45 12.439c-0.016 0.18-0.025 0.389-0.025 0.6 0 0.474 0.045 0.937 0.131 1.386l-0.007-0.046c2.179-1.309 4.628-3.332 4.533-5.776v-0.213c-1.623 0.188-3.053 0.894-4.149 1.947l0.002-0.002c-0.251 0.617-0.423 1.332-0.484 2.079l-0.002 0.026z"></path>
</symbol>
<symbol id="client-6" viewBox="0 0 31 16">
<path  d="M15.562 7.427c-0.126-0.18-0.201-0.403-0.201-0.644 0-0.025 0.001-0.050 0.002-0.075l-0 0.003v-1.037c0-0.318 0.066-0.56 0.197-0.725s0.358-0.248 0.678-0.247c0.301 0 0.515 0.070 0.641 0.211 0.138 0.179 0.205 0.399 0.19 0.621v0.243h-0.538v-0.247c0-0.010 0-0.021 0-0.032 0-0.074-0.006-0.147-0.017-0.217l0.001 0.008c-0.009-0.057-0.036-0.107-0.077-0.143l-0-0c-0.048-0.035-0.107-0.057-0.172-0.057-0.008 0-0.016 0-0.024 0.001l0.001-0c-0.007-0.001-0.015-0.001-0.023-0.001-0.069 0-0.132 0.022-0.183 0.061l0.001-0.001c-0.045 0.040-0.077 0.095-0.089 0.157l-0 0.002c-0.016 0.085-0.023 0.17-0.021 0.256v1.259c-0.001 0.014-0.002 0.031-0.002 0.048 0 0.111 0.026 0.216 0.072 0.309l-0.002-0.004c0.027 0.038 0.064 0.067 0.106 0.085l0.002 0.001c0.031 0.014 0.068 0.022 0.106 0.022 0.011 0 0.023-0.001 0.034-0.002l-0.001 0c0.007 0.001 0.014 0.001 0.022 0.001 0.064 0 0.123-0.022 0.169-0.058l-0.001 0c0.042-0.039 0.071-0.092 0.080-0.152l0-0.001c0.013-0.083 0.018-0.168 0.017-0.252v-0.256h0.538v0.233c0.001 0.019 0.002 0.041 0.002 0.064 0 0.221-0.071 0.425-0.191 0.592l0.002-0.003c-0.123 0.154-0.334 0.231-0.644 0.231s-0.544-0.082-0.677-0.253zM17.804 7.438c-0.136-0.162-0.204-0.397-0.204-0.708v-1.091c0-0.308 0.068-0.541 0.204-0.699s0.363-0.237 0.682-0.237c0.317 0 0.543 0.079 0.679 0.237s0.205 0.391 0.205 0.699v1.091c0 0.308-0.070 0.544-0.207 0.707s-0.363 0.243-0.677 0.243c-0.313 0-0.545-0.082-0.682-0.242zM18.737 7.176c0.049-0.101 0.071-0.212 0.065-0.323v-1.336c0.001-0.011 0.001-0.023 0.001-0.036 0-0.102-0.024-0.199-0.066-0.284l0.002 0.004c-0.028-0.038-0.065-0.068-0.108-0.086l-0.002-0.001c-0.031-0.013-0.067-0.021-0.106-0.021-0.013 0-0.025 0.001-0.038 0.003l0.001-0c-0.011-0.002-0.024-0.002-0.036-0.002-0.038 0-0.075 0.008-0.108 0.022l0.002-0.001c-0.045 0.019-0.082 0.049-0.11 0.086l-0 0.001c-0.049 0.098-0.071 0.207-0.065 0.317v1.342c-0.007 0.111 0.015 0.222 0.065 0.323 0.031 0.034 0.069 0.061 0.111 0.079l0.002 0.001c0.041 0.018 0.088 0.028 0.138 0.028s0.098-0.010 0.141-0.029l-0.002 0.001c0.044-0.019 0.082-0.046 0.113-0.080l0-0v-0.006zM20.017 4.734h0.58l0.436 2.014 0.446-2.014h0.564l0.057 2.906h-0.416l-0.045-2.020-0.431 2.020h-0.334l-0.446-2.027-0.041 2.027h-0.422l0.052-2.906zM22.75 4.734h0.903c0.52 0 0.78 0.275 0.78 0.825 0 0.527-0.274 0.79-0.822 0.79h-0.307v1.291h-0.558l0.003-2.906zM23.521 5.976c0.055 0.007 0.111 0.002 0.163-0.014s0.102-0.042 0.143-0.078c0.064-0.098 0.092-0.214 0.080-0.328 0-0.010 0.001-0.022 0.001-0.034 0-0.082-0.010-0.161-0.028-0.237l0.001 0.007c-0.009-0.031-0.023-0.058-0.041-0.080l0 0c-0.019-0.024-0.043-0.043-0.069-0.058l-0.001-0.001c-0.064-0.030-0.139-0.047-0.219-0.047-0.010 0-0.021 0-0.031 0.001l0.001-0h-0.216v0.868h0.216zM25.237 4.734h0.599l0.614 2.906h-0.52l-0.121-0.67h-0.534l-0.125 0.67h-0.527l0.614-2.906zM25.749 6.634l-0.209-1.22-0.208 1.22h0.417zM26.946 4.734h0.39l0.747 1.658v-1.658h0.463v2.906h-0.371l-0.751-1.731v1.731h-0.478l0.001-2.906zM29.629 6.532l-0.621-1.794h0.523l0.379 1.152 0.355-1.152h0.512l-0.613 1.794v1.108h-0.535v-1.108zM16.423 8.911v0.152h-0.455v1.181h-0.191v-1.181h-0.457v-0.152h1.103zM17.848 10.244h-0.147c-0.001 0-0.003 0-0.004 0-0.014 0-0.027-0.005-0.037-0.013l0 0c-0.011-0.008-0.019-0.018-0.024-0.030l-0-0-0.131-0.317h-0.631l-0.132 0.317c-0.004 0.014-0.011 0.026-0.020 0.036l0-0c-0.010 0.008-0.024 0.013-0.038 0.013-0.001 0-0.002-0-0.004-0h-0.147l0.558-1.333h0.194l0.564 1.328zM16.925 9.749h0.526l-0.223-0.543c-0.014-0.034-0.028-0.075-0.040-0.118l-0.002-0.007-0.021 0.071-0.020 0.056-0.221 0.542zM18.809 10.113c0.035 0.002 0.070 0.002 0.104 0 0.030-0.003 0.060-0.008 0.089-0.016 0.032-0.007 0.058-0.016 0.084-0.026l-0.004 0.001c0.025-0.009 0.049-0.021 0.075-0.032v-0.3h-0.223c-0.001 0-0.002 0-0.003 0-0.011 0-0.020-0.004-0.028-0.011l0 0c-0.007-0.005-0.011-0.014-0.011-0.023 0-0 0-0.001 0-0.001v0-0.103h0.433v0.511c-0.068 0.046-0.146 0.083-0.23 0.107l-0.006 0.001c-0.039 0.012-0.086 0.021-0.135 0.027l-0.005 0c-0.048 0.005-0.104 0.008-0.161 0.008-0.001 0-0.002 0-0.002 0h0c-0.002 0-0.004 0-0.006 0-0.099 0-0.193-0.018-0.28-0.052l0.005 0.002c-0.086-0.033-0.16-0.080-0.223-0.139l0 0c-0.060-0.059-0.109-0.129-0.142-0.207l-0.002-0.004c-0.033-0.079-0.052-0.171-0.052-0.268 0-0.003 0-0.006 0-0.009v0c-0-0.003-0-0.006-0-0.009 0-0.097 0.019-0.19 0.052-0.275l-0.002 0.005c0.032-0.079 0.081-0.151 0.144-0.211s0.139-0.107 0.223-0.138c0.095-0.034 0.197-0.051 0.299-0.049 0.052 0 0.104 0.003 0.155 0.011 0.045 0.007 0.090 0.018 0.133 0.034 0.039 0.014 0.077 0.031 0.111 0.053s0.067 0.044 0.097 0.070l-0.054 0.082c-0.004 0.008-0.011 0.014-0.018 0.018l-0 0c-0.007 0.004-0.016 0.007-0.025 0.007h-0c-0.013-0-0.025-0.004-0.035-0.011l0 0c-0.022-0.011-0.040-0.022-0.057-0.033l0.003 0.002c-0.021-0.013-0.046-0.025-0.072-0.035l-0.003-0.001c-0.029-0.011-0.063-0.022-0.098-0.029l-0.004-0.001c-0.040-0.007-0.087-0.012-0.134-0.012-0.003 0-0.005 0-0.008 0h0c-0.002-0-0.004-0-0.007-0-0.075 0-0.146 0.014-0.212 0.038l0.004-0.001c-0.062 0.024-0.118 0.059-0.164 0.105-0.046 0.048-0.082 0.104-0.104 0.166-0.024 0.066-0.037 0.143-0.037 0.222s0.014 0.156 0.039 0.227l-0.001-0.005c0.024 0.063 0.062 0.12 0.111 0.168 0.046 0.046 0.101 0.082 0.163 0.106 0.071 0.023 0.146 0.032 0.221 0.026zM20.586 10.092h0.609v0.152h-0.795v-1.333h0.191l-0.005 1.181zM21.828 10.243h-0.191v-1.332h0.191v1.333zM22.537 8.917c0.011 0.006 0.021 0.014 0.029 0.024l0 0 0.815 1.005c-0.001-0.007-0.001-0.015-0.001-0.024s0-0.017 0.001-0.025l-0 0.001v-0.993h0.166v1.338h-0.096c-0.002 0-0.004 0-0.007 0-0.013 0-0.025-0.003-0.035-0.008l0.001 0c-0.012-0.007-0.022-0.015-0.030-0.025l-0-0-0.814-1.003v1.036h-0.159v-1.333h0.099c0.011 0 0.022 0.002 0.031 0.006zM24.95 8.911v0.147h-0.675v0.44h0.547v0.141h-0.547v0.455h0.675v0.147h-0.872v-1.33h0.872zM4.975 0.68l8.464 2.275v7.973l-8.464-2.274v-7.974zM4.432 0v9.041l9.549 2.568v-9.040l-9.549-2.568z"></path>
<path  d="M9.55 15.805l-9.55-2.57v-9.040l9.55 2.569v9.041z"></path>
<path  d="M4.591 0.577l8.354 2.247-3.553 3.364-8.355-2.248 3.554-3.363zM4.432 0l-4.432 4.196 9.55 2.569 4.431-4.196-9.549-2.569zM10.087 15.297l3.894-3.687-3.894-1.048v4.735z"></path>
</symbol>
<symbol id="smartphone" viewBox="0 0 10 16">
<path  d="M8.5 0h-7c-0.827 0-1.5 0.673-1.5 1.5v13c0 0.827 0.673 1.5 1.5 1.5h7c0.827 0 1.5-0.673 1.5-1.5v-13c0-0.827-0.673-1.5-1.5-1.5zM1.5 1h7c0.276 0 0.5 0.224 0.5 0.5v0 10.5h-8v-10.5c0-0.276 0.224-0.5 0.5-0.5v0zM8.5 15h-7c-0.276 0-0.5-0.224-0.5-0.5v0-1.5h8v1.5c0 0.276-0.224 0.5-0.5 0.5v0z"></path>
<path  d="M2.354 13.739c0.090 0.082 0.146 0.199 0.146 0.33s-0.056 0.248-0.146 0.33l-0 0c-0.093 0.085-0.217 0.137-0.354 0.137s-0.261-0.052-0.354-0.138l0 0c-0.090-0.082-0.146-0.199-0.146-0.33s0.056-0.248 0.146-0.33l0-0c0.093-0.085 0.217-0.137 0.354-0.137s0.261 0.052 0.354 0.138l-0-0z"></path>
</symbol>
<symbol id="twitter" viewBox="0 0 16 16">
<path  d="M16 3.039c-0.55 0.247-1.188 0.429-1.856 0.514l-0.034 0.004c0.68-0.408 1.191-1.039 1.437-1.79l0.007-0.023c-0.599 0.361-1.296 0.637-2.038 0.787l-0.042 0.007c-0.6-0.639-1.45-1.038-2.394-1.038-1.811 0-3.279 1.468-3.279 3.279 0 0.001 0 0.001 0 0.002v-0c0 0.26 0.022 0.51 0.076 0.748-2.727-0.133-5.14-1.44-6.761-3.43-0.282 0.475-0.449 1.046-0.451 1.656v0.001c0 1.136 0.586 2.143 1.457 2.726-0.546-0.015-1.054-0.163-1.497-0.412l0.016 0.008v0.036c0.001 1.582 1.118 2.904 2.606 3.22l0.022 0.004c-0.249 0.068-0.536 0.107-0.831 0.107-0.010 0-0.020-0-0.030-0l0.002 0c-0.21 0-0.422-0.012-0.621-0.056 0.425 1.299 1.63 2.254 3.065 2.285-1.107 0.873-2.523 1.4-4.061 1.4-0.002 0-0.004 0-0.006 0h0c-0.009 0-0.020 0-0.031 0-0.266 0-0.527-0.017-0.784-0.050l0.030 0.003c1.413 0.923 3.143 1.472 5.002 1.472 0.011 0 0.021-0 0.032-0h-0.002c6.036 0 9.336-5 9.336-9.334 0-0.144-0.005-0.285-0.012-0.424 0.649-0.468 1.195-1.032 1.629-1.677l0.015-0.023z"></path>
</symbol>
<symbol id="icon-checkbox" viewBox="0 0 42 32">
<path fill="#fff" style="fill: var(--color1, #fff); stroke: var(--color1, #fff)" stroke="#fff" stroke-linejoin="miter" stroke-linecap="butt" stroke-miterlimit="4" stroke-width="0.64" d="M6.263 15.205l-0.22-0.21-3.307 3.132 11.651 11.114 24.477-23.351-3.285-3.134-21.192 20.197-8.124-7.75z"></path>
</symbol>
<symbol id="icon-email-black" viewBox="0 0 43 32">
<path d="M37.333 0h-32c-2.2 0-3.98 1.8-3.98 4l-0.020 24c0 2.2 1.8 4 4 4h32c2.2 0 4-1.8 4-4v-24c0-2.2-1.8-4-4-4zM36.533 8.5l-14.14 8.84c-0.64 0.4-1.48 0.4-2.12 0l-14.14-8.84c-0.5-0.32-0.8-0.86-0.8-1.44 0-1.34 1.46-2.14 2.6-1.44l13.4 8.38 13.4-8.38c1.14-0.7 2.6 0.1 2.6 1.44 0 0.58-0.3 1.12-0.8 1.44z"></path>
</symbol>
<symbol id="icon-person" viewBox="0 0 32 32">
<path d="M16 16c4.42 0 8-3.58 8-8s-3.58-8-8-8c-4.42 0-8 3.58-8 8s3.58 8 8 8zM16 20c-5.34 0-16 2.68-16 8v2c0 1.1 0.9 2 2 2h28c1.1 0 2-0.9 2-2v-2c0-5.32-10.66-8-16-8z"></path>
</symbol>
<symbol id="icon-tel-black" viewBox="0 0 32 32">
<path d="M27.419 20.852l-4.201-0.48c-1.009-0.116-2.002 0.232-2.713 0.943l-3.044 3.044c-4.681-2.382-8.519-6.203-10.901-10.901l3.060-3.060c0.711-0.711 1.059-1.704 0.943-2.713l-0.48-4.168c-0.198-1.671-1.604-2.928-3.292-2.928h-2.862c-1.869 0-3.424 1.555-3.308 3.424 0.877 14.126 12.174 25.407 26.284 26.284 1.869 0.116 3.424-1.439 3.424-3.308v-2.861c0.016-1.671-1.241-3.077-2.911-3.275z"></path>
</symbol>
<symbol id="icon-send" viewBox="0 0 32 32">
<path fill="#fff" style="fill: var(--color1, #fff)" d="M32 0l-32 18 10.227 3.788 15.773-14.788-11.998 16.186 0.010 0.004-0.012-0.004v8.814l5.735-6.691 7.265 2.691 5-28z"></path>
</symbol>
</defs>
</svg>
